<?xml version="1.0" encoding="UTF-8"?>
<svg width="86px" height="86px" viewBox="0 0 86 86" version="1.1" xmlns="http://www.w3.org/2000/svg" xmlns:xlink="http://www.w3.org/1999/xlink">
    <!-- Generator: Sketch 52.2 (67145) - http://www.bohemiancoding.com/sketch -->
    <title>envelope-star-red</title>
    <desc>Created with Sketch.</desc>
    <g id="Microsite-Desktop" stroke="none" stroke-width="1" fill="none" fill-rule="evenodd">
        <g id="Loyalty-Microsite" transform="translate(-734.000000, -1587.000000)" fill="#E63248" fill-rule="nonzero">
            <g id="Icon-Email" transform="translate(734.000000, 1587.000000)">
                <g id="Email-Offer" transform="translate(10.000000, 7.000000)">
                    <path d="M2.79166667,29.7018662 L2.79166667,68.3110634 L63.5366541,68.3110634 L63.5366541,29.7227315 L32.7712165,3.66935449 L2.79166667,29.7018662 Z M0,28.4368063 L32.7483825,0 L66.3283208,28.4368063 L66.3283208,71.0920158 L0,71.0920158 L0,28.4368063 Z" id="Rectangle"></path>
                    <g id="star" transform="translate(13.433584, 11.709273)">
                        <path d="M7.57796508,32.7204832 C7.86660219,30.9325638 8.29955785,28.2506848 8.87683207,24.6748461 L0.328338223,15.8463799 C0.0327905055,15.5411527 -0.074681392,15.0879365 0.0529414863,14.6763422 C0.180564364,14.2647479 0.52089204,13.9595207 0.935106645,13.8878386 L13.8071054,11.6726289 L19.1493543,0.638202372 C19.3396691,0.247419036 19.7270157,0 20.1501863,0 C20.5733569,0 20.9629425,0.247419036 21.1510184,0.638202372 L26.4932673,11.6726289 L39.365266,13.8878386 C39.7794806,13.9595207 40.1198083,14.2624356 40.2474311,14.6763422 C40.375054,15.0902488 40.2698211,15.5411527 39.9720344,15.8463799 L31.4235406,24.6748461 C31.9615346,28.0073694 32.3650301,30.5067619 32.634027,32.1730235 L19.7305764,39.9058563 L7.57796508,32.7204832 Z M26.7589748,36.256476 C25.2903551,35.4293584 23.0874256,34.1886821 20.1501863,32.534447 C17.0696684,34.2693758 14.7592799,35.5705723 13.2190209,36.4380367 L19.7305764,39.8036914 L26.7589748,36.256476 Z M20.1501863,30.0602567 C20.3337841,30.0602567 20.519621,30.1065032 20.6853068,30.2013086 L28.8819201,34.8176107 L30.5713887,33.4529218 L29.1218508,24.4690489 C29.0613978,24.1013889 29.1778257,23.7244795 29.4353105,23.4608742 L36.8531104,15.8001334 L25.5640831,13.8577783 C25.2103215,13.7976578 24.9080568,13.5641127 24.7468489,13.2334499 L20.1501863,3.73903346 L15.5535237,13.2334499 C15.3923159,13.5641127 15.0900511,13.7953455 14.7362895,13.8577783 L3.44726225,15.8001334 L10.8650622,23.4608742 C11.1203079,23.7244795 11.2367358,24.0990765 11.1785219,24.4690489 L9.65633404,33.9031873 L11.2355256,34.9206345 L19.6150658,30.2013086 C19.7829907,30.1065032 19.9665885,30.0602567 20.1501863,30.0602567 Z" id="Shape"></path>
                    </g>
                    <path d="M3.07503133,32.7203394 L3.07503133,69.7015396 L63.2532895,69.7015396 L63.2532895,32.7203394 L33.9431109,52.3561529 C33.4721122,52.6716898 32.8562086,52.6716898 32.3852099,52.3561529 L3.07503133,32.7203394 Z M33.1641604,49.5266624 L63.8701723,28.9557361 C64.7973952,28.3345602 66.0449561,28.9964491 66.0449561,30.1095596 L66.0449561,71.0920158 C66.0449561,71.8599545 65.4200203,72.4824919 64.6491228,72.4824919 L1.67919799,72.4824919 C0.908300532,72.4824919 0.283364662,71.8599545 0.283364662,71.0920158 L0.283364662,30.1095596 C0.283364662,28.9964491 1.53092559,28.3345602 2.45814846,28.9557361 L33.1641604,49.5266624 Z" id="Path-3"></path>
                </g>
            </g>
        </g>
    </g>
</svg>