<?xml version="1.0" encoding="UTF-8"?>
<svg width="130px" height="130px" viewBox="0 0 130 130" version="1.1" xmlns="http://www.w3.org/2000/svg" xmlns:xlink="http://www.w3.org/1999/xlink">
    <!-- Generator: Sketch 52.2 (67145) - http://www.bohemiancoding.com/sketch -->
    <title>envelope-star-circled</title>
    <desc>Created with Sketch.</desc>
    <g id="Microsite-Desktop" stroke="none" stroke-width="1" fill="none" fill-rule="evenodd">
        <g id="Loyalty-Microsite" transform="translate(-1088.000000, -2444.000000)">
            <g id="Email-Offers" transform="translate(947.000000, 2444.000000)">
                <g id="Icon-Email" transform="translate(141.000000, 0.000000)">
                    <circle id="Oval" fill="#E63248" fill-rule="nonzero" cx="65" cy="65" r="65"></circle>
                    <g id="Email-Offer" transform="translate(26.390977, 10.751880)" fill="#FFFFFF" fill-rule="nonzero">
                        <path d="M3.25,34.7115131 L3.25,79.8327068 L73.9680451,79.8327068 L73.9680451,34.7358977 L38.1515654,4.2882439 L3.25,34.7115131 Z M0,33.2330827 L38.1249826,0 L77.2180451,33.2330827 L77.2180451,83.0827068 L0,83.0827068 L0,33.2330827 Z" id="Rectangle"></path>
                        <g id="star" transform="translate(15.639098, 13.684211)">
                            <path d="M8.82210861,38.2392633 C9.1581339,36.1497857 9.66217183,33.0155691 10.3342224,28.8366138 L0.382244499,18.5190998 C0.0381740213,18.1623916 -0.086942516,17.632734 0.0616333721,17.1517184 C0.21020926,16.6707029 0.606411628,16.3139947 1.08863162,16.2302223 L16.0739436,13.6413856 L22.2932781,0.745844382 C22.5148386,0.289149815 22.9657795,0 23.4584259,0 C23.9510722,0 24.4046197,0.289149815 24.6235736,0.745844382 L30.8429082,13.6413856 L45.8282201,16.2302223 C46.3104401,16.3139947 46.7066424,16.6680005 46.8552183,17.1517184 C47.0037942,17.6354364 46.8812843,18.1623916 46.5346072,18.5190998 L36.5826293,28.8366138 C37.2089507,32.7312151 37.6786917,35.652166 37.9918524,37.5994667 L22.9699248,46.636553 L8.82210861,38.2392633 Z M31.1522393,42.3716522 C29.442503,41.4050293 26.8778985,39.9550951 23.4584259,38.0218495 C19.8721512,40.0493989 17.1824453,41.570061 15.389308,42.5838357 L22.9699248,46.5171565 L31.1522393,42.3716522 Z M23.4584259,35.1303513 C23.6721666,35.1303513 23.888514,35.184398 24.0814019,35.2951937 L33.6237279,40.6901016 L35.590572,39.0952382 L33.9030501,28.596106 C33.8326721,28.1664347 33.968215,27.7259542 34.2679734,27.417888 L42.903621,18.4650531 L29.7611714,16.195092 C29.3493295,16.1248313 28.9974392,15.8518954 28.8097644,15.4654616 L23.4584259,4.36967524 L18.1070873,15.4654616 C17.9194125,15.8518954 17.5675222,16.1221289 17.1556803,16.195092 L4.01323068,18.4650531 L12.6488783,27.417888 C12.9460301,27.7259542 13.081573,28.1637324 13.0138016,28.596106 L11.2417023,39.6214475 L13.0801641,40.8105018 L22.8354498,35.2951937 C23.0309444,35.184398 23.2446851,35.1303513 23.4584259,35.1303513 Z" id="Shape"></path>
                        </g>
                        <path d="M3.57988722,38.2390953 L3.57988722,81.4577068 L73.6381579,81.4577068 L73.6381579,38.2390953 L39.5158604,61.1867712 C38.9675336,61.5555279 38.2505115,61.5555279 37.7021847,61.1867712 L3.57988722,38.2390953 Z M38.6090226,57.8800464 L74.35632,33.8395375 C75.4357735,33.1135914 76.8881579,33.8871173 76.8881579,35.1879699 L76.8881579,83.0827068 C76.8881579,83.9801695 76.1606206,84.7077068 75.2631579,84.7077068 L1.95488722,84.7077068 C1.0574245,84.7077068 0.329887218,83.9801695 0.329887218,83.0827068 L0.329887218,35.1879699 C0.329887218,33.8871173 1.78227159,33.1135914 2.86172507,33.8395375 L38.6090226,57.8800464 Z" id="Path-3"></path>
                    </g>
                    <path d="M127.161644,78.6875 L2.83835574,78.6875 C8.91644126,107.451228 34.7349487,128.5 65,128.5 C95.2650513,128.5 121.083559,107.451228 127.16164,78.6875183 Z" id="Combined-Shape" stroke="#E63248" stroke-width="3" fill="#FFFFFF"></path>
                </g>
            </g>
        </g>
    </g>
</svg>