<?xml version="1.0" encoding="UTF-8"?>
<svg width="130px" height="130px" viewBox="0 0 130 130" version="1.1" xmlns="http://www.w3.org/2000/svg" xmlns:xlink="http://www.w3.org/1999/xlink">
    <!-- Generator: Sketch 52.2 (67145) - http://www.bohemiancoding.com/sketch -->
    <title>kiosk-circled</title>
    <desc>Created with Sketch.</desc>
    <defs>
        <polygon id="path-1" points="4.39965997e-16 0 63.0538922 0 63.0538922 79.4011976 4.39965997e-16 79.4011976"></polygon>
    </defs>
    <g id="Microsite-Desktop" stroke="none" stroke-width="1" fill="none" fill-rule="evenodd">
        <g id="Loyalty-Microsite" transform="translate(-655.000000, -2444.000000)">
            <g id="Redeem" transform="translate(514.000000, 2444.000000)">
                <g id="Icon-Kiosk" transform="translate(141.000000, 0.000000)">
                    <circle id="Oval" fill="#E63248" fill-rule="nonzero" cx="65" cy="65" r="65"></circle>
                    <g id="icon-kiosk" transform="translate(33.473054, 15.568862)">
                        <mask id="mask-2" fill="white">
                            <use xlink:href="#path-1"></use>
                        </mask>
                        <g id="Clip-2"></g>
                        <path d="M39.8612373,32.9686224 L11.6313005,32.9686224 L16.6121656,10.3506444 L44.9560082,10.3506444 L39.8612373,32.9686224 Z M46.8169724,7.32980254 L15.2721036,7.32980254 C14.5450691,7.3119765 13.9065067,7.81263887 13.7467231,8.52587189 L7.99603861,34.1646918 C7.81051421,34.990823 8.32628349,35.8115873 9.14789156,35.9982814 C9.27049402,36.0260747 9.39595656,36.0385338 9.52141911,36.0354669 L41.0662879,36.0354669 C41.793513,36.053293 42.4318848,35.5526306 42.5916684,34.8393976 L48.3423529,9.13924078 C48.4125204,8.70068202 48.2901086,8.25330608 48.0067692,7.91250299 C47.7190443,7.54639843 47.2810694,7.33191099 46.8169724,7.32980254 Z" id="Fill-1" fill="#FFFFFF" mask="url(#mask-2)"></path>
                        <path d="M54.2800633,37.7702625 C54.2727189,37.8584208 54.2727189,37.9467736 54.2800633,38.0349319 L54.2800633,76.2407339 L48.8838362,76.2407339 L48.8838362,38.8756464 L56.2746573,4.00156462 L59.8618341,6.22790109 L54.2800633,37.7702625 Z M45.8223663,38.3774452 C45.8109631,38.4860375 45.8109631,38.5957974 45.8223663,38.7043897 L45.8223663,76.2407339 L3.10094619,76.2407339 L3.10094619,39.0780406 L10.6309251,3.06743743 L53.1822636,3.06743743 L45.8223663,38.3774452 Z M62.3202872,4.12611491 L55.965418,0.18721193 L55.8881081,0.18721193 L55.6561786,0.0937992106 C55.531903,0.0461198019 55.4020225,0.0145930093 55.2696294,0.000386491618 L9.37850557,0.000386491618 C8.63691089,-0.016155344 7.98789474,0.499949928 7.83230868,1.23032062 L0.00855240156,38.5954082 C-0.00285080052,38.7040005 -0.00285080052,38.8137604 0.00855240156,38.9223527 L0.00855240156,77.844319 C0.00855240156,78.7041052 0.70086206,79.4011976 1.55474929,79.4011976 L55.8107983,79.4011976 C56.6646855,79.4011976 57.3569952,78.7041052 57.3569952,77.844319 L57.3569952,38.2373261 L63.0315378,5.71413113 C63.1382253,5.08826592 62.8568175,4.45987077 62.3202872,4.12611491 Z" id="Fill-3" fill="#FFFFFF" mask="url(#mask-2)"></path>
                        <path d="M10.5119085,47.9649723 L31.0382243,47.9649723 L31.0382243,43.0777543 L10.5119085,43.0777543 L10.5119085,47.9649723 Z M9.15893002,41.122867 C8.28673269,41.122867 7.57957769,41.4511048 7.57957769,41.8559498 L7.57957769,49.1867768 C7.57957769,49.5916217 8.28673269,49.9198595 9.15893002,49.9198595 L32.3912028,49.9198595 C33.2635975,49.9198595 33.9705551,49.5916217 33.9705551,49.1867768 L33.9705551,41.8559498 C33.9705551,41.4511048 33.2635975,41.122867 32.3912028,41.122867 L9.15893002,41.122867 Z" id="Fill-5" fill="#FFFFFF" mask="url(#mask-2)"></path>
                        <path d="M37.8803296,47.9649723 L40.8126604,47.9649723 L40.8126604,43.0777543 L37.8803296,43.0777543 L37.8803296,47.9649723 Z M36.3349041,41.122867 C36.1087788,41.122867 35.9254423,41.4511048 35.9254423,41.8559498 L35.9254423,49.1867768 C35.9254423,49.5916217 36.1087788,49.9198595 36.3349041,49.9198595 L42.3580859,49.9198595 C42.5842623,49.9198595 42.7675476,49.5916217 42.7675476,49.1867768 L42.7675476,41.8559498 C42.7675476,41.4511048 42.5842623,41.122867 42.3580859,41.122867 L36.3349041,41.122867 Z" id="Fill-5-Copy" fill="#FFFFFF" mask="url(#mask-2)"></path>
                    </g>
                    <path d="M127.394854,79.3443114 L3.38358886,79.3443114 C9.45522041,107.727701 35.2032098,128.5 65.3892216,128.5 C95.5752333,128.5 121.323223,107.727701 127.39485,79.3443302 Z" id="Combined-Shape" stroke="#E63248" stroke-width="3" fill="#FFFFFF"></path>
                </g>
            </g>
        </g>
    </g>
</svg>