<?xml version="1.0" encoding="UTF-8"?>
<svg width="86px" height="86px" viewBox="0 0 86 86" version="1.1" xmlns="http://www.w3.org/2000/svg" xmlns:xlink="http://www.w3.org/1999/xlink">
    <!-- Generator: Sketch 52.2 (67145) - http://www.bohemiancoding.com/sketch -->
    <title>kiosk-red</title>
    <desc>Created with Sketch.</desc>
    <g id="Microsite-Desktop" stroke="none" stroke-width="1" fill="none" fill-rule="evenodd">
        <g id="Loyalty-Microsite" transform="translate(-734.000000, -1743.000000)" fill="#E63248">
            <g id="Icon-Kiosk" transform="translate(734.000000, 1743.000000)">
                <g id="icon-kiosk">
                    <g id="Fill-1-+-Fill-3-+-Fill-5-+-Fill-5-Copy-Mask" transform="translate(16.000000, 2.000000)">
                        <path d="M33.9646045,28.1974137 L9.91069392,28.1974137 L14.1547447,8.85270234 L38.3057111,8.85270234 L33.9646045,28.1974137 Z M39.8913847,6.26903581 L13.0129167,6.26903581 C12.3934317,6.25378955 11.8493312,6.68199621 11.7131842,7.29201038 L6.81319266,29.2203883 C6.6551127,29.9269621 7.09458475,30.6289456 7.79465316,30.7886214 C7.89911916,30.8123925 8.00602216,30.8230484 8.11292516,30.8204254 L34.9913932,30.8204254 C35.6110407,30.8356717 36.1549787,30.407465 36.2911257,29.7974509 L41.1911172,7.81661272 C41.2509049,7.44152204 41.1466014,7.05889021 40.9051761,6.76740803 C40.660014,6.45428601 40.2868283,6.27083913 39.8913847,6.26903581 Z" id="Fill-1"></path>
                        <path d="M46.2504682,32.3041619 C46.2442102,32.379562 46.2442102,32.4551284 46.2504682,32.5305285 L46.2504682,65.2071988 L41.6524995,65.2071988 L41.6524995,33.249575 L47.9500039,3.42245944 L51.0065332,5.32660119 L46.2504682,32.3041619 Z M39.0439098,32.8234733 C39.0341934,32.9163502 39.0341934,33.0102257 39.0439098,33.1031025 L39.0439098,65.2071988 L2.64222634,65.2071988 L2.64222634,33.4226788 L9.05830301,2.62351885 L45.3150648,2.62351885 L39.0439098,32.8234733 Z M47.68651,0.160118678 L47.6206365,0.160118678 L47.4230161,0.0802246182 C47.3171245,0.0394453586 47.206457,0.0124811136 47.0936487,0.000330558672 L7.99115268,0.000330558672 C7.35926135,-0.0138173477 6.80625351,0.427597331 6.67368314,1.05226901 L0.0072872534,33.0098928 C-0.00242908447,33.1027697 -0.00242908447,33.1966452 0.0072872534,33.289522 L0.0072872534,80.4770186 C0.0072872534,81.2123768 0.597184241,81.8085862 1.3247568,81.8085862 L47.554763,81.8085862 C48.2823356,81.8085862 48.8722326,81.2123768 48.8722326,80.4770186 L48.8722326,32.7036322 L53.7073458,4.88718386 C53.7982512,4.35189367 53.5584717,3.81443967 53.1013098,3.52898485 L47.68651,0.160118678 Z" id="Fill-3"></path>
                        <path d="M8.95689246,41.0234965 L26.446771,41.0234965 L26.446771,36.8435551 L8.95689246,36.8435551 L8.95689246,41.0234965 Z M7.80405871,35.1715786 C7.06088466,35.1715786 6.45833838,35.4523139 6.45833838,35.7985698 L6.45833838,42.0684819 C6.45833838,42.4147378 7.06088466,42.6954731 7.80405871,42.6954731 L27.5996048,42.6954731 C28.342947,42.6954731 28.9453251,42.4147378 28.9453251,42.0684819 L28.9453251,35.7985698 C28.9453251,35.4523139 28.342947,35.1715786 27.5996048,35.1715786 L7.80405871,35.1715786 Z" id="Fill-5"></path>
                        <path d="M32.2767305,41.0234965 L34.7752846,41.0234965 L34.7752846,36.8435551 L32.2767305,36.8435551 L32.2767305,41.0234965 Z M30.9599183,35.1715786 C30.7672435,35.1715786 30.6110278,35.4523139 30.6110278,35.7985698 L30.6110278,42.0684819 C30.6110278,42.4147378 30.7672435,42.6954731 30.9599183,42.6954731 L36.0920969,42.6954731 C36.2848152,42.6954731 36.4409873,42.4147378 36.4409873,42.0684819 L36.4409873,35.7985698 C36.4409873,35.4523139 36.2848152,35.1715786 36.0920969,35.1715786 L30.9599183,35.1715786 Z" id="Fill-5-Copy"></path>
                    </g>
                </g>
            </g>
        </g>
    </g>
</svg>