<?xml version="1.0" encoding="UTF-8"?>
<svg width="132px" height="132px" viewBox="0 0 132 132" version="1.1" xmlns="http://www.w3.org/2000/svg" xmlns:xlink="http://www.w3.org/1999/xlink">
    <!-- Generator: Sketch 52.2 (67145) - http://www.bohemiancoding.com/sketch -->
    <title>receipt-circled</title>
    <desc>Created with Sketch.</desc>
    <g id="Microsite-Desktop" stroke="none" stroke-width="1" fill="none" fill-rule="evenodd">
        <g id="Loyalty-Microsite" transform="translate(-221.000000, -2443.000000)">
            <g id="Make-an-order" transform="translate(81.000000, 2443.000000)">
                <g id="Earn-icon" transform="translate(140.000000, 0.000000)">
                    <circle id="Oval" stroke="#E63248" stroke-width="2" fill="#E63248" cx="66" cy="66" r="65"></circle>
                    <g id="receipt" transform="translate(33.500000, 25.375000)" fill="#FFFFFF">
                        <path d="M3.25,4.53942635 L3.25,85.3125 L62.5625,85.3125 L62.5625,4.48763688 L54.4518779,7.15035189 C53.7244082,7.38917999 52.9359752,7.36349752 52.2255904,7.07783264 L43.3143354,3.49437682 L34.042412,7.09237037 C33.3077301,7.37746556 32.4944859,7.38590503 31.7540457,7.11611796 L21.7940691,3.48709726 L13.1810047,7.06397062 C12.4510036,7.36712889 11.63554,7.39385192 10.8872572,7.13913753 L3.25,4.53942635 Z M0,0 L11.9345401,4.0625 L21.7169871,0 L32.866663,4.0625 L43.3356059,0 L53.438137,4.0625 L65.8125,0 L65.8125,88.5625 L0,88.5625 L0,0 Z" id="Rectangle" fill-rule="nonzero"></path>
                        <rect id="Rectangle-Copy-4" x="12.1875" y="35.75" width="42.25" height="4.875"></rect>
                        <rect id="Rectangle-Copy-5" x="12.1875" y="44.6875" width="42.25" height="4.875"></rect>
                        <rect id="Rectangle-Copy-6" x="12.1875" y="53.625" width="42.25" height="4.875"></rect>
                        <path d="M40.3065,26.4615 C40.3065,27.865507 39.8168382,29.0484952 38.8375,30.0105 C37.8581618,30.9725048 36.5451749,31.5748321 34.8985,31.8175 L34.8985,34.7035 L32.2465,34.7035 L32.2465,31.8695 C31.0851609,31.7828329 30.0061716,31.5575018 29.0095,31.1935 C28.0128283,30.8294982 27.1418371,30.3355031 26.3965,29.7115 L27.5405,27.2675 C29.0485075,28.4461726 30.6778246,29.0961661 32.4285,29.2175 L32.4285,23.8095 C31.2671609,23.5148319 30.2878373,23.1898351 29.4905,22.8345 C28.6931627,22.4791649 28.025836,21.9505035 27.4885,21.2485 C26.951164,20.5464965 26.6825,19.6321723 26.6825,18.5055 C26.6825,17.5694953 26.9164977,16.7158372 27.3845,15.9445 C27.8525023,15.1731628 28.5068291,14.5318359 29.3475,14.0205 C30.1881709,13.5091641 31.1544945,13.1841674 32.2465,13.0455 L32.2465,10.1595 L34.8985,10.1595 L34.8985,13.0195 C35.9038384,13.1408339 36.8484956,13.3834982 37.7325,13.7475 C38.6165044,14.1115018 39.3618303,14.5708306 39.9685,15.1255 L38.8245,17.5695 C37.5591603,16.5294948 36.1898407,15.905501 34.7165,15.6975 L34.7165,21.3395 C35.8778391,21.6341681 36.8398295,21.9504983 37.6025,22.2885 C38.3651705,22.6265017 39.0064974,23.1334966 39.5265,23.8095 C40.0465026,24.4855034 40.3065,25.3694945 40.3065,26.4615 Z M30.0365,18.3235 C30.0365,18.9301697 30.2444979,19.4198315 30.6605,19.7925 C31.0765021,20.1651685 31.6658295,20.4814987 32.4285,20.7415 L32.4285,15.7235 C31.6831629,15.8795008 31.0981688,16.1828311 30.6735,16.6335 C30.2488312,17.0841689 30.0365,17.6474966 30.0365,18.3235 Z M34.7165,29.0875 C35.4445036,28.9314992 35.9991648,28.6411688 36.3805,28.2165 C36.7618352,27.7918312 36.9525,27.2415034 36.9525,26.5655 C36.9525,26.028164 36.7618352,25.594835 36.3805,25.2655 C35.9991648,24.936165 35.4445036,24.6588345 34.7165,24.4335 L34.7165,29.0875 Z" id="$" fill-rule="nonzero"></path>
                    </g>
                    <path d="M127.955393,80.0117371 L4.04460717,80.0117371 C10.1069251,108.588214 35.8373708,129.5 66,129.5 C96.1626292,129.5 121.893075,108.588214 127.955389,80.0117556 Z" id="Combined-Shape" stroke="#E63248" stroke-width="3" fill="#FFFFFF"></path>
                </g>
            </g>
        </g>
    </g>
</svg>