<?xml version="1.0" encoding="UTF-8"?>
<svg width="86px" height="86px" viewBox="0 0 86 86" version="1.1" xmlns="http://www.w3.org/2000/svg" xmlns:xlink="http://www.w3.org/1999/xlink">
    <!-- Generator: Sketch 52.2 (67145) - http://www.bohemiancoding.com/sketch -->
    <title>receipt-red</title>
    <desc>Created with Sketch.</desc>
    <g id="Microsite-Desktop" stroke="none" stroke-width="1" fill="none" fill-rule="evenodd">
        <g id="Loyalty-Microsite" transform="translate(-298.000000, -1743.000000)" fill="#E63248">
            <g id="receipt" transform="translate(298.000000, 1743.000000)">
                <path d="M12.3580247,6.2030539 L12.3580247,80.9908257 L73.6419753,80.9908257 L73.6419753,6.15510203 L65.2617694,8.62050931 C64.5101198,8.84164019 63.6954806,8.81786079 62.9614838,8.55336375 L53.7540331,5.23544276 L44.1739261,8.56682422 C43.4148246,8.8307938 42.5745496,8.8386079 41.8094983,8.58881211 L31.5184684,5.22870261 L22.6191198,8.5405289 C21.8648546,8.82122308 21.0222864,8.84596593 20.2491318,8.61012593 L12.3580247,6.2030539 Z M9,2 L21.3312247,5.76146789 L31.4388243,2 L42.9590972,5.76146789 L53.7760106,2 L64.2143333,5.76146789 L77,2 L77,84 L9,84 L9,2 Z" id="Rectangle" fill-rule="nonzero"></path>
                <rect id="Rectangle-Copy-4" x="21" y="45" width="44" height="5"></rect>
                <rect id="Rectangle-Copy-5" x="21" y="53" width="44" height="5"></rect>
                <rect id="Rectangle-Copy-6" x="21" y="61" width="44" height="5"></rect>
                <path d="M50,33.2764831 C50,34.5921676 49.50717,35.700737 48.5214953,36.6022246 C47.5358206,37.5037121 46.2143385,38.0681486 44.5570093,38.2955508 L44.5570093,41 L41.8878505,41 L41.8878505,38.3442797 C40.7189973,38.2630646 39.6330268,38.0519085 38.6299065,37.7108051 C37.6267863,37.3697017 36.7501595,36.9067826 36,36.3220339 L37.1514019,34.0317797 C38.6691665,35.136305 40.3090255,35.745409 42.071028,35.8591102 L42.071028,30.7913136 C40.9021748,30.5151822 39.9165149,30.2106302 39.1140187,29.8776483 C38.3115225,29.5446664 37.6398781,29.0492618 37.0990654,28.3914195 C36.5582527,27.7335772 36.2878505,26.8767708 36.2878505,25.8209746 C36.2878505,24.9438515 36.5233621,24.1438949 36.9943925,23.4210805 C37.4654229,22.6982662 38.1239833,22.0972835 38.9700935,21.6181144 C39.8162036,21.1389453 40.7887796,20.8343933 41.8878505,20.7044492 L41.8878505,18 L44.5570093,18 L44.5570093,20.6800847 C45.5688524,20.7937859 46.5196217,21.0211847 47.4093458,21.3622881 C48.2990699,21.7033915 49.0492181,22.1338251 49.6598131,22.6536017 L48.5084112,24.9438559 C47.2348846,23.9692748 45.8567052,23.3845349 44.3738318,23.1896186 L44.3738318,28.4766949 C45.542685,28.7528262 46.5108996,29.0492569 47.2785047,29.3659958 C48.0461098,29.6827346 48.6915862,30.1578358 49.2149533,30.7913136 C49.7383204,31.4247913 50,32.2531728 50,33.2764831 Z M39.6635514,25.6504237 C39.6635514,26.2189294 39.8728951,26.6777878 40.2915888,27.0270127 C40.7102825,27.3762376 41.303423,27.6726683 42.071028,27.9163136 L42.071028,23.2139831 C41.3208685,23.3601702 40.7320894,23.6444188 40.3046729,24.0667373 C39.8772564,24.4890558 39.6635514,25.016946 39.6635514,25.6504237 Z M44.3738318,35.7372881 C45.1065457,35.591101 45.6647956,35.3190345 46.0485981,34.9210805 C46.4324007,34.5231265 46.6242991,34.0074184 46.6242991,33.3739407 C46.6242991,32.8704071 46.4324007,32.4643377 46.0485981,32.1557203 C45.6647956,31.847103 45.1065457,31.5872186 44.3738318,31.3760593 L44.3738318,35.7372881 Z" id="$" fill-rule="nonzero"></path>
            </g>
        </g>
    </g>
</svg>