<svg xmlns="http://www.w3.org/2000/svg" xmlns:xlink="http://www.w3.org/1999/xlink" width="142" height="120" viewBox="0 0 142 120">
    <defs>
        <path id="a" d="M.265.379h27.923v30.198H.265z"/>
        <path id="c" d="M.263.325h10.048V11H.263z"/>
        <path id="e" d="M0 .53h55v55.051H0z"/>
    </defs>
    <g fill="none" fill-rule="evenodd">
        <path fill="#E63248" d="M4.962 73.321H2.257C.84 73.321.5 72.744.5 71.728v-.359c0-1.017.34-1.488 1.757-1.488h2.705V64.85c0-1.436.604-1.85 1.61-1.85h.413c1.004 0 1.589.414 1.589 1.85v5.031h7.57c1.419 0 1.778.471 1.778 1.488v.359c0 1.016-.36 1.593-1.777 1.593H8.574v16.17c0 4.186 1.097 6.159 4.228 6.159 1.95 0 3.385-.837 4.389-2.092.118-.12 1.309.418 1.309 1.914 0 1.613-2.012 3.528-5.736 3.528-5.494 0-7.802-3.17-7.802-9.09V73.32zM22.5 58.419c0-.12.59-.419 1.31-.419 1.319 0 2.57.66 2.57 3.774v13.062c2.154-3.056 5.225-5.272 9.72-5.272 7.553 0 11.4 5.032 11.4 12.58v15.04c0 1.437-.757 1.816-1.776 1.816h-.42c-1.018 0-1.684-.379-1.684-1.816V82.385c0-5.752-2.955-9.167-7.751-9.167-5.635 0-9.49 3.835-9.49 9.767v14.199c0 1.437-.615 1.816-1.635 1.816h-.42c-1.018 0-1.824-.379-1.824-1.816V58.419zM55.5 69.886c0-.118.599-.414 1.294-.414 1.273 0 2.453.65 2.453 3.719v1.653c1.04-3.837 3.565-5.844 7.27-5.844 2.547 0 3.983 1.063 3.983 2.893 0 1.416-.931 2.124-1.047 2.006-.81-.708-1.804-1.18-3.367-1.18-4.92 0-6.84 5.253-6.84 12.454v11.038c0 1.418-.68 1.789-1.665 1.789h-.405c-.984 0-1.676-.371-1.676-1.789V69.886zM75.5 71.775c0-1.445.828-1.775 1.88-1.775h.43c1.052 0 1.69.33 1.69 1.775v25.401c0 1.446-.638 1.824-1.69 1.824h-.43c-1.052 0-1.88-.378-1.88-1.824V71.775zM85.504 71.134c-.058-.24.529-1.134 1.877-1.134 1.35 0 1.995.537 2.876 2.865L98.47 95.18l8.39-22.316c.88-2.328 1.585-2.865 2.758-2.865 1.35 0 1.936.955 1.878 1.134l-10.268 26.314c-.41 1.016-.821 1.552-2.758 1.552-1.994 0-2.17-.417-2.582-1.432L85.504 71.134z"/>
        <g transform="translate(113.5 69)">
            <mask id="b" fill="#fff">
                <use xlink:href="#a"/>
            </mask>
            <path fill="#E63248" d="M23.922 13.114c-.361-5.645-3.857-9.36-9.22-9.36-5.424 0-9.581 3.931-10.425 9.36h19.645zM14.756.38c8.075 0 13.432 5.738 13.432 14.494v.363c0 1.088-.53 1.353-1.735 1.353H4.156c.3 6.079 4.76 10.496 10.908 10.496 5.604 0 8.135-2.421 9.822-5.14.12-.18 2.29.36 2.29 2.232 0 1.994-4.338 6.4-12.112 6.4-8.739 0-14.799-6.16-14.799-14.978C.265 6.84 6.439.379 14.756.379z" mask="url(#b)"/>
        </g>
        <path fill="#E53248" d="M64.5 118.963v-9.564c0-.029.035-.061.103-.097.068-.035.173-.068.315-.097a2.13 2.13 0 0 1 .428-.043c.954 0 1.437.595 1.453 1.786.503-1.293 1.453-1.941 2.848-1.948.58 0 1.033.121 1.361.364.328.244.492.578.492 1.001 0 .248-.053.466-.16.653-.107.186-.22.313-.338.382-.117.066-.184.092-.2.079-.404-.314-.88-.47-1.43-.47-1.7 0-2.55 1.392-2.55 4.174v3.771c0 .698-.343 1.046-1.03 1.046h-.262c-.687 0-1.03-.345-1.03-1.037"/>
        <g transform="translate(72.5 109)">
            <mask id="d" fill="#fff">
                <use xlink:href="#c"/>
            </mask>
            <path fill="#E53248" d="M2.179 4.804h6.073c-.054-.887-.337-1.59-.844-2.112-.508-.521-1.183-.781-2.028-.781-.83 0-1.541.27-2.13.812-.592.542-.947 1.235-1.071 2.08M.263 5.71c0-1.544.49-2.828 1.474-3.85C2.717.835 3.954.324 5.443.324c1.46 0 2.636.472 3.53 1.415.892.943 1.338 2.174 1.338 3.691v.165c0 .226-.045.385-.134.479-.09.092-.255.138-.496.138H2.179c.068.92.42 1.67 1.054 2.25.636.58 1.43.87 2.383.87 1.463 0 2.523-.56 3.182-1.678.027-.026.125-.016.293.031.17.048.346.158.53.332a.864.864 0 0 1 .278.66c0 .526-.405 1.043-1.214 1.556-.81.51-1.846.766-3.11.766-1.599 0-2.884-.486-3.854-1.456C.748 8.572.263 7.294.263 5.709" mask="url(#d)"/>
        </g>
        <path fill="#E53248" d="M84.503 109.644c-.016-.044.042-.119.17-.224a1.93 1.93 0 0 1 .527-.289c.223-.087.434-.13.632-.13.63 0 1.018.392 1.165 1.179l1.692 7.537 2.067-6.512c.146-.524.604-.782 1.371-.774.703 0 1.126.267 1.27.8l2.001 6.467 1.67-7.515c.133-.797.513-1.19 1.144-1.183.197 0 .405.047.621.141.215.095.385.192.505.29.121.098.174.17.16.213l-2.682 9.646c-.117.48-.564.718-1.34.71-.42 0-.716-.05-.885-.153-.172-.102-.305-.31-.4-.623l-2.106-6.51-2.154 6.512c-.103.297-.245.5-.428.611-.184.108-.492.163-.923.163-.777 0-1.235-.237-1.374-.71l-2.703-9.646zM101.693 116.93c0 .469.187.842.558 1.116.372.274.888.41 1.549.41 1 0 1.82-.264 2.459-.795.638-.53.957-1.212.957-2.046v-.812l-.63.022c-1.661.057-2.892.248-3.693.572-.8.324-1.2.835-1.2 1.532m-2.193.086c0-1.195.603-2.078 1.81-2.646 1.208-.57 3.075-.875 5.603-.918h.303v-.21c0-.79-.235-1.391-.704-1.808-.47-.414-1.152-.623-2.046-.623-1.505 0-2.576.587-3.211 1.76 0 .029-.111.026-.334-.01a1.58 1.58 0 0 1-.679-.31.827.827 0 0 1-.35-.707c0-.589.431-1.16 1.29-1.713.86-.553 2.007-.83 3.442-.83 1.58 0 2.787.363 3.623 1.091.834.729 1.253 1.762 1.253 3.104v6.433c0 .056-.09.11-.27.16a2.11 2.11 0 0 1-.564.075c-.937 0-1.413-.566-1.428-1.694-.413.564-.971 1.01-1.673 1.34-.703.327-1.479.491-2.328.491-1.16 0-2.073-.272-2.738-.817-.666-.546-.999-1.268-.999-2.168M111.5 118.963v-9.564c0-.029.034-.061.103-.097.068-.035.173-.068.314-.097.141-.029.284-.043.428-.043.955 0 1.438.595 1.454 1.786.503-1.293 1.453-1.941 2.847-1.948.58 0 1.033.121 1.362.364.328.244.492.578.492 1.001 0 .248-.054.466-.16.653-.108.186-.22.313-.338.382-.118.066-.185.092-.2.079-.404-.314-.882-.47-1.43-.47-1.7 0-2.55 1.392-2.55 4.174v3.771c0 .698-.344 1.046-1.03 1.046h-.263c-.687 0-1.029-.345-1.029-1.037M121.626 114.564c0 1.069.309 1.946.928 2.63.618.684 1.412 1.026 2.38 1.026.911 0 1.696-.289 2.36-.864.663-.577.993-1.292.993-2.146v-2.177c-.612-1.409-1.715-2.114-3.309-2.114-1.012 0-1.824.333-2.436 1-.611.667-.916 1.548-.916 2.645m-.714 3.927c-.942-1.007-1.412-2.314-1.412-3.921 0-1.608.476-2.915 1.426-3.921.951-1.007 2.167-1.51 3.648-1.51.837 0 1.58.16 2.227.486.649.326 1.136.735 1.464 1.23v-5.613c0-.028.04-.062.116-.1.076-.038.18-.072.308-.1.129-.027.259-.042.39-.042.947 0 1.421.607 1.421 1.82v11.978c0 .67-.33 1.003-.991 1.003h-.22c-.66 0-.995-.338-1.002-1.016v-.805c-.88 1.34-2.137 2.013-3.772 2.02-1.46 0-2.663-.503-3.603-1.51M132.5 117.778a.84.84 0 0 1 .213-.558c.142-.167.281-.283.416-.35.134-.068.216-.091.245-.07.836 1.041 2.041 1.562 3.618 1.562.759 0 1.345-.127 1.758-.381.413-.256.62-.6.62-1.032 0-.261-.054-.476-.159-.642-.104-.166-.304-.312-.6-.437a5.256 5.256 0 0 0-.8-.268l-1.221-.284-1.012-.235a6.647 6.647 0 0 1-.98-.334c-.396-.163-.706-.342-.928-.537a2.645 2.645 0 0 1-.59-.79 2.432 2.432 0 0 1-.257-1.128c0-.985.39-1.78 1.17-2.386.78-.605 1.816-.908 3.109-.908 1.277 0 2.284.218 3.022.653.737.436 1.105.924 1.105 1.462a.889.889 0 0 1-.21.569 1.305 1.305 0 0 1-.433.366c-.148.07-.23.092-.243.063-.757-.984-1.808-1.477-3.155-1.477-.744 0-1.32.128-1.724.382-.406.254-.608.604-.608 1.05 0 .43.196.742.59.932.393.191 1.1.397 2.122.616l1.066.232c.258.056.598.167 1.018.335.42.167.74.35.959.549.22.199.423.47.609.81.187.342.28.729.28 1.162 0 1-.399 1.799-1.198 2.397-.799.599-1.888.899-3.266.899-1.402 0-2.51-.233-3.32-.697-.81-.464-1.216-.972-1.216-1.525"/>
        <g transform="translate(50.5)">
            <mask id="f" fill="#fff">
                <use xlink:href="#e"/>
            </mask>
            <path fill="#E63248" d="M17.6 28.056c0-5.464 4.44-9.91 9.9-9.91s9.9 4.446 9.9 9.91c0 1.16-.21 2.268-.577 3.303H18.178a9.854 9.854 0 0 1-.578-3.303m-14.3 0c0-13.357 10.856-24.223 24.2-24.223S51.7 14.7 51.7 28.056c0 1.12-.082 2.222-.231 3.303H40.266a13.18 13.18 0 0 0 .434-3.303c0-7.285-5.92-13.213-13.2-13.213-7.278 0-13.2 5.928-13.2 13.213 0 1.142.16 2.244.434 3.303H3.531a24.182 24.182 0 0 1-.23-3.303M49.185 44.97c.485-.62.943-1.262 1.373-1.924.013-.018.024-.037.035-.055a27.36 27.36 0 0 0 4.202-11.632c.13-1.084.204-2.184.204-3.303C55 12.854 42.69.53 27.5.53 12.313.53 0 12.854 0 28.056c0 1.119.075 2.219.204 3.303a27.372 27.372 0 0 0 4.2 11.632l.037.055c.43.662.888 1.304 1.373 1.924l.075.096c.482.613.988 1.205 1.519 1.775l.082.085c.538.572 1.099 1.123 1.684 1.647l.044.038a27.474 27.474 0 0 0 3.852 2.875l.058.038c.651.4 1.322.77 2.007 1.116.07.035.138.072.208.106.66.326 1.337.624 2.027.899l.294.116a27.164 27.164 0 0 0 2.41.796c.709.2 1.43.372 2.16.514.104.02.208.036.311.055.75.138 1.51.25 2.281.323.072.008.145.01.217.017.81.072 1.628.115 2.457.115s1.646-.043 2.457-.115c.072-.006.145-.01.217-.017.771-.074 1.53-.185 2.28-.323.104-.019.209-.035.313-.055a27.277 27.277 0 0 0 2.49-.608 27.118 27.118 0 0 0 2.079-.702c.1-.038.196-.077.295-.116a27.48 27.48 0 0 0 2.026-.9c.07-.033.138-.07.208-.105a27.124 27.124 0 0 0 2.006-1.116c.021-.012.04-.025.06-.038a27.632 27.632 0 0 0 3.85-2.875l.045-.038a27.576 27.576 0 0 0 1.685-1.647l.08-.085a27.872 27.872 0 0 0 1.52-1.775l.075-.096" mask="url(#f)"/>
        </g>
    </g>
</svg>
