<svg xmlns="http://www.w3.org/2000/svg" xmlns:xlink="http://www.w3.org/1999/xlink" width="308" height="150" viewBox="0 0 308 150">
    <defs>
        <path id="a" d="M.305.555h38.628v14.12H.305z"/>
        <path id="c" d="M.395.268h60.34v64.476H.395z"/>
    </defs>
    <g fill="none" fill-rule="evenodd">
        <g transform="translate(202)">
            <mask id="b" fill="#fff">
                <use xlink:href="#a"/>
            </mask>
            <path fill="#E63248" d="M.305 14.675S11.208-1.882 34.625.862c0 0 5.526 1.431 4.061 7.136 0 0-.925 5.704-8.768 3.47 0 0-12.459-6.72-29.613 3.207" mask="url(#b)"/>
        </g>
        <path fill="#E63248" d="M222 17.281c0-1.26-1.512-2.281-3.377-2.281-1.865 0-3.377.855-3.377 2.114 0 .076.022.151.033.226-5.135 20.657-23.485 35.986-45.279 35.986-21.752 0-40.072-15.271-45.247-35.867l.002-.011c0-1.26-1.513-2.281-3.378-2.281-1.865 0-3.377.854-3.377 2.114 0 .23.066.456.16.675C123.655 42.016 144.8 60 170 60c25.212 0 46.365-18 51.848-42.077.09-.206.152-.418.152-.642M9.804 93.57H4.052C.915 93.57 0 92.39 0 90.16v-.789c0-2.23.915-3.41 4.052-3.41h5.752V75.067c0-3.15 1.568-4.067 3.791-4.067h.915c2.222 0 3.66.918 3.66 4.067v10.894h16.6c3.137 0 4.053 1.18 4.053 3.41v.788c0 2.231-.916 3.412-4.053 3.412h-16.6v35.564c0 9.185 2.353 13.517 9.281 13.517 4.314 0 7.45-1.838 9.672-4.594.262-.262 2.877.919 2.877 4.2C40 145.8 35.424 150 27.189 150c-12.156 0-17.385-6.955-17.385-19.946V93.57zM51 61.899c0-.257 1.3-.899 2.862-.899 2.863 0 5.596 1.413 5.596 8.094v28.005c4.294-6.552 11.19-11.305 20.95-11.305 16.395 0 24.592 10.79 24.592 26.978v32.245c0 3.083-1.56 3.983-3.773 3.983h-.91c-2.213 0-3.775-.9-3.775-3.983v-31.731c0-12.333-6.246-19.655-16.655-19.655-12.231 0-20.43 8.221-20.43 20.94v30.446c0 3.083-1.56 3.983-3.773 3.983h-.911c-2.212 0-3.773-.9-3.773-3.983V61.899zM122 84.982c0-.265 1.274-.926 2.803-.926 2.803 0 5.352 1.453 5.352 8.324v3.7c2.547-8.588 7.899-13.08 16.053-13.08 5.606 0 8.792 2.378 8.792 6.473 0 3.17-2.039 4.756-2.293 4.492-1.784-1.585-3.95-2.642-7.39-2.642-10.83 0-15.035 11.757-15.035 27.876v24.705c0 3.171-1.529 4.096-3.696 4.096h-.891c-2.166 0-3.695-.925-3.695-4.096V84.982zM165 88.971c0-3.074 1.847-3.971 4.462-3.971h1.076c2.616 0 4.462.897 4.462 3.971v54.058c0 3.074-1.846 3.971-4.462 3.971h-1.076c-2.615 0-4.462-.897-4.462-3.971V88.97zM185.009 87.541c-.127-.534 1.137-2.541 4.044-2.541 2.906 0 4.296 1.204 6.191 6.42l17.692 50.02 18.072-50.02c1.895-5.216 3.412-6.42 5.94-6.42 2.906 0 4.17 2.14 4.043 2.541l-22.115 58.982c-.884 2.274-1.77 3.477-5.94 3.477-4.296 0-4.675-.936-5.56-3.21L185.01 87.541z"/>
        <g transform="translate(247 85)">
            <mask id="d" fill="#fff">
                <use xlink:href="#c"/>
            </mask>
            <path fill="#E63248" d="M51.723 27.606C50.94 15.485 43.364 7.618 31.741 7.618c-11.755 0-20.767 8.253-22.596 19.988h42.578zM31.741.268c17.501 0 28.994 12.25 28.994 30.949v.773c0 2.321-.914 2.838-3.526 2.838H8.885c.653 13.153 10.318 22.437 23.64 22.437 12.146 0 17.631-5.158 21.288-10.96.262-.388 4.963.773 4.963 4.77 0 4.256-9.403 13.669-26.252 13.669C13.585 64.744.395 51.59.395 32.764.395 14.066 13.717.268 31.741.268z" mask="url(#d)"/>
        </g>
    </g>
</svg>
