<?xml version="1.0" encoding="UTF-8"?>
<svg width="297px" height="39px" viewBox="0 0 297 39" version="1.1" xmlns="http://www.w3.org/2000/svg" xmlns:xlink="http://www.w3.org/1999/xlink">
    <!-- Generator: Sketch 52.2 (67145) - http://www.bohemiancoding.com/sketch -->
    <title>Group</title>
    <desc>Created with Sketch.</desc>
    <g id="Microsite-Desktop" stroke="none" stroke-width="1" fill="none" fill-rule="evenodd">
        <g id="How-it-works:-Step-2-Scroll" transform="translate(-80.000000, -31.000000)" fill="#FFFFFF">
            <g id="Thrive-Logo" transform="translate(80.000000, 31.000000)">
                <g id="Group">
                    <path d="M66.544,29.643 C67.0866694,29.6923336 67.4751655,29.8341655 67.7095,30.0685 C67.9438345,30.3028345 68.061,30.6296646 68.061,31.049 C68.061,31.5423358 67.8698352,31.9184987 67.4875,32.1775 C67.1051648,32.4365013 66.5440037,32.5413336 65.804,32.492 L64.805,32.418 C62.80699,32.2699993 61.3146716,31.6595054 60.328,30.5865 C59.3413284,29.5134946 58.848,27.9286771 58.848,25.832 L58.848,17.137 L56.628,17.137 C55.5426612,17.137 55,16.6560048 55,15.694 C55,15.2499978 55.1418319,14.8985013 55.4255,14.6395 C55.7091681,14.3804987 56.1099974,14.251 56.628,14.251 L58.848,14.251 L58.848,10.44 C58.848,9.87266383 59.0144983,9.42866827 59.3475,9.108 C59.6805017,8.78733173 60.1306638,8.627 60.698,8.627 C61.2653362,8.627 61.7216649,8.78733173 62.067,9.108 C62.4123351,9.42866827 62.585,9.87266383 62.585,10.44 L62.585,14.251 L66.248,14.251 C66.7660026,14.251 67.1668319,14.3804987 67.4505,14.6395 C67.7341681,14.8985013 67.876,15.2499978 67.876,15.694 C67.876,16.162669 67.7341681,16.5203321 67.4505,16.767 C67.1668319,17.0136679 66.7660026,17.137 66.248,17.137 L62.585,17.137 L62.585,26.091 C62.585,27.2503391 62.8254976,28.1013306 63.3065,28.644 C63.7875024,29.1866694 64.5213284,29.4949996 65.508,29.569 L66.544,29.643 Z M80.53,13.807 C84.8220215,13.807 86.968,16.2366424 86.968,21.096 L86.968,30.716 C86.968,31.2586694 86.7953351,31.6903317 86.45,32.011 C86.1046649,32.3316683 85.6483362,32.492 85.081,32.492 C84.5136638,32.492 84.0635017,32.3316683 83.7305,32.011 C83.3974983,31.6903317 83.231,31.2586694 83.231,30.716 L83.231,21.133 C83.231,19.6529926 82.9288364,18.5676701 82.3245,17.877 C81.7201636,17.1863299 80.7766731,16.841 79.494,16.841 C77.9893258,16.841 76.7806712,17.309662 75.868,18.247 C74.9553288,19.184338 74.499,20.4423254 74.499,22.021 L74.499,30.716 C74.499,31.2586694 74.3325017,31.6903317 73.9995,32.011 C73.6664983,32.3316683 73.2163362,32.492 72.649,32.492 C72.0816638,32.492 71.6253351,32.3316683 71.28,32.011 C70.9346649,31.6903317 70.762,31.2586694 70.762,30.716 L70.762,7.813 C70.762,7.27033062 70.9408315,6.83866827 71.2985,6.518 C71.6561685,6.19733173 72.1186638,6.037 72.686,6.037 C73.2286694,6.037 73.6664983,6.19116512 73.9995,6.4995 C74.3325017,6.80783487 74.499,7.22099741 74.499,7.739 L74.499,16.989 C75.1156697,15.9529948 75.9419948,15.1636694 76.978,14.621 C78.0140052,14.0783306 79.1979933,13.807 80.53,13.807 Z M101.546,13.881 C102.730006,13.8069996 103.322,14.3126612 103.322,15.398 C103.322,15.9406694 103.186335,16.3476653 102.915,16.619 C102.643665,16.8903347 102.175003,17.0506664 101.509,17.1 L100.399,17.211 C98.8449922,17.3590007 97.6918371,17.901662 96.9395,18.839 C96.1871629,19.776338 95.811,20.9109933 95.811,22.243 L95.811,30.716 C95.811,31.308003 95.6383351,31.7519985 95.293,32.048 C94.9476649,32.3440015 94.5036694,32.492 93.961,32.492 C93.4183306,32.492 92.9681685,32.3440015 92.6105,32.048 C92.2528315,31.7519985 92.074,31.308003 92.074,30.716 L92.074,15.657 C92.074,15.0896638 92.2528315,14.6518349 92.6105,14.3435 C92.9681685,14.0351651 93.4183306,13.881 93.961,13.881 C94.4543358,13.881 94.8674983,14.0351651 95.2005,14.3435 C95.5335017,14.6518349 95.7,15.0773306 95.7,15.62 L95.7,17.396 C96.1933358,16.3106612 96.908662,15.4843362 97.846,14.917 C98.783338,14.3496638 99.8439941,14.0166672 101.028,13.918 L101.546,13.881 Z M107.503,32.492 C106.960331,32.492 106.510168,32.3440015 106.1525,32.048 C105.794832,31.7519985 105.616,31.308003 105.616,30.716 L105.616,15.694 C105.616,15.101997 105.794832,14.6518349 106.1525,14.3435 C106.510168,14.0351651 106.960331,13.881 107.503,13.881 C108.045669,13.881 108.489665,14.0351651 108.835,14.3435 C109.180335,14.6518349 109.353,15.101997 109.353,15.694 L109.353,30.716 C109.353,31.308003 109.180335,31.7519985 108.835,32.048 C108.489665,32.3440015 108.045669,32.492 107.503,32.492 Z M107.503,10.255 C106.787663,10.255 106.220335,10.0576686 105.801,9.663 C105.381665,9.26833136 105.172,8.75033654 105.172,8.109 C105.172,7.46766346 105.381665,6.95583524 105.801,6.5735 C106.220335,6.19116475 106.787663,6 107.503,6 C108.19367,6 108.754831,6.19116475 109.1865,6.5735 C109.618169,6.95583524 109.834,7.46766346 109.834,8.109 C109.834,8.75033654 109.624335,9.26833136 109.205,9.663 C108.785665,10.0576686 108.218337,10.255 107.503,10.255 Z M127.409,14.991 C127.557001,14.6209981 127.772832,14.3496675 128.0565,14.177 C128.340168,14.0043325 128.642332,13.918 128.963,13.918 C129.431669,13.918 129.844832,14.0783317 130.2025,14.399 C130.560168,14.7196683 130.739,15.1019978 130.739,15.546 C130.739,15.7926679 130.689667,16.0269989 130.591,16.249 L123.524,31.234 C123.351332,31.6286686 123.086168,31.9308323 122.7285,32.1405 C122.370832,32.3501677 121.994669,32.455 121.6,32.455 C121.205331,32.455 120.829168,32.3501677 120.4715,32.1405 C120.113832,31.9308323 119.848668,31.6286686 119.676,31.234 L112.609,16.249 C112.510333,16.0516657 112.461,15.8173347 112.461,15.546 C112.461,15.1019978 112.658331,14.7196683 113.053,14.399 C113.447669,14.0783317 113.891664,13.918 114.385,13.918 C115.100337,13.918 115.630665,14.2633299 115.976,14.954 L121.711,27.682 L127.409,14.991 Z M147.944,27.756 C148.289335,27.756 148.572999,27.8916653 148.795,28.163 C149.017001,28.4343347 149.128,28.7796646 149.128,29.199 C149.128,29.9143369 148.684004,30.5186642 147.796,31.012 C146.932662,31.5053358 145.989172,31.8876653 144.9655,32.159 C143.941828,32.4303347 142.961338,32.566 142.024,32.566 C139.162652,32.566 136.905675,31.7335083 135.253,30.0685 C133.600325,28.4034917 132.774,26.1280144 132.774,23.242 C132.774,21.3919907 133.13783,19.7516738 133.8655,18.321 C134.59317,16.8903262 135.616827,15.7803373 136.9365,14.991 C138.256173,14.2016627 139.754658,13.807 141.432,13.807 C143.849345,13.807 145.760993,14.5839922 147.167,16.138 C148.573007,17.6920078 149.276,19.7886535 149.276,22.428 C149.276,23.4146716 148.832004,23.908 147.944,23.908 L136.511,23.908 C136.757668,27.7313524 138.595316,29.643 142.024,29.643 C142.936671,29.643 143.725997,29.5196679 144.392,29.273 C145.058003,29.0263321 145.760996,28.7056686 146.501,28.311 C146.575,28.2616664 146.778498,28.1568341 147.1115,27.9965 C147.444502,27.8361659 147.721999,27.756 147.944,27.756 Z M141.506,16.545 C140.075326,16.545 138.928338,17.0013288 138.065,17.914 C137.201662,18.8266712 136.683668,20.1093251 136.511,21.762 L146.057,21.762 C145.983,20.0846583 145.557504,18.7958378 144.7805,17.8955 C144.003496,16.9951622 142.912007,16.545 141.506,16.545 Z M172.623,13.881 C173.807006,13.8069996 174.399,14.3126612 174.399,15.398 C174.399,15.9406694 174.263335,16.3476653 173.992,16.619 C173.720665,16.8903347 173.252003,17.0506664 172.586,17.1 L171.476,17.211 C169.921992,17.3590007 168.768837,17.901662 168.0165,18.839 C167.264163,19.776338 166.888,20.9109933 166.888,22.243 L166.888,30.716 C166.888,31.308003 166.715335,31.7519985 166.37,32.048 C166.024665,32.3440015 165.580669,32.492 165.038,32.492 C164.495331,32.492 164.045168,32.3440015 163.6875,32.048 C163.329832,31.7519985 163.151,31.308003 163.151,30.716 L163.151,15.657 C163.151,15.0896638 163.329832,14.6518349 163.6875,14.3435 C164.045168,14.0351651 164.495331,13.881 165.038,13.881 C165.531336,13.881 165.944498,14.0351651 166.2775,14.3435 C166.610502,14.6518349 166.777,15.0773306 166.777,15.62 L166.777,17.396 C167.270336,16.3106612 167.985662,15.4843362 168.923,14.917 C169.860338,14.3496638 170.920994,14.0166672 172.105,13.918 L172.623,13.881 Z M190.827,27.756 C191.172335,27.756 191.455999,27.8916653 191.678,28.163 C191.900001,28.4343347 192.011,28.7796646 192.011,29.199 C192.011,29.9143369 191.567004,30.5186642 190.679,31.012 C189.815662,31.5053358 188.872172,31.8876653 187.8485,32.159 C186.824828,32.4303347 185.844338,32.566 184.907,32.566 C182.045652,32.566 179.788675,31.7335083 178.136,30.0685 C176.483325,28.4034917 175.657,26.1280144 175.657,23.242 C175.657,21.3919907 176.02083,19.7516738 176.7485,18.321 C177.47617,16.8903262 178.499827,15.7803373 179.8195,14.991 C181.139173,14.2016627 182.637658,13.807 184.315,13.807 C186.732345,13.807 188.643993,14.5839922 190.05,16.138 C191.456007,17.6920078 192.159,19.7886535 192.159,22.428 C192.159,23.4146716 191.715004,23.908 190.827,23.908 L179.394,23.908 C179.640668,27.7313524 181.478316,29.643 184.907,29.643 C185.819671,29.643 186.608997,29.5196679 187.275,29.273 C187.941003,29.0263321 188.643996,28.7056686 189.384,28.311 C189.458,28.2616664 189.661498,28.1568341 189.9945,27.9965 C190.327502,27.8361659 190.604999,27.756 190.827,27.756 Z M184.389,16.545 C182.958326,16.545 181.811338,17.0013288 180.948,17.914 C180.084662,18.8266712 179.566668,20.1093251 179.394,21.762 L188.94,21.762 C188.866,20.0846583 188.440504,18.7958378 187.6635,17.8955 C186.886496,16.9951622 185.795007,16.545 184.389,16.545 Z M220.834,15.028 C221.105335,14.2879963 221.610996,13.918 222.351,13.918 C222.819669,13.918 223.238998,14.0783317 223.609,14.399 C223.979002,14.7196683 224.164,15.114331 224.164,15.583 C224.164,15.8296679 224.114667,16.0516657 224.016,16.249 L217.874,31.234 C217.725999,31.6286686 217.479335,31.9308323 217.134,32.1405 C216.788665,32.3501677 216.406335,32.455 215.987,32.455 C215.592331,32.455 215.222335,32.3501677 214.877,32.1405 C214.531665,31.9308323 214.285001,31.6286686 214.137,31.234 L209.327,19.357 L204.628,31.234 C204.479999,31.6286686 204.239502,31.9308323 203.9065,32.1405 C203.573498,32.3501677 203.197335,32.455 202.778,32.455 C202.383331,32.455 202.007168,32.3501677 201.6495,32.1405 C201.291832,31.9308323 201.026668,31.6286686 200.854,31.234 L194.749,16.249 C194.650333,16.0516657 194.601,15.8420011 194.601,15.62 C194.601,15.1266642 194.804498,14.7196683 195.2115,14.399 C195.618502,14.0783317 196.068664,13.918 196.562,13.918 C197.302004,13.918 197.807665,14.2756631 198.079,14.991 L202.852,27.608 L207.736,15.102 C207.884001,14.7073314 208.118332,14.4113343 208.439,14.214 C208.759668,14.0166657 209.104998,13.918 209.475,13.918 C209.820335,13.918 210.153332,14.0166657 210.474,14.214 C210.794668,14.4113343 211.028999,14.7073314 211.177,15.102 L216.061,27.534 L220.834,15.028 Z M235.227,13.807 C237.619679,13.807 239.401827,14.4113273 240.5735,15.62 C241.745173,16.8286727 242.331,18.666321 242.331,21.133 L242.331,30.716 C242.331,31.2833362 242.170668,31.7211651 241.85,32.0295 C241.529332,32.3378349 241.085336,32.492 240.518,32.492 C239.975331,32.492 239.543668,32.3316683 239.223,32.011 C238.902332,31.6903317 238.742,31.2586694 238.742,30.716 L238.742,29.347 C238.273331,30.3830052 237.576505,31.1784972 236.6515,31.7335 C235.726495,32.2885028 234.647339,32.566 233.414,32.566 C232.229994,32.566 231.144672,32.3255024 230.158,31.8445 C229.171328,31.3634976 228.400503,30.6913376 227.8455,29.828 C227.290497,28.9646623 227.013,28.002672 227.013,26.942 C227.013,25.6346601 227.352163,24.6048371 228.0305,23.8525 C228.708837,23.1001629 229.831159,22.5636683 231.3975,22.243 C232.963841,21.9223317 235.115986,21.762 237.854,21.762 L238.705,21.762 L238.705,20.689 C238.705,19.3076598 238.421336,18.3086697 237.854,17.692 C237.286664,17.0753302 236.374006,16.767 235.116,16.767 C234.252662,16.767 233.43867,16.8779989 232.674,17.1 C231.90933,17.3220011 231.070671,17.6426646 230.158,18.062 C229.491997,18.4320018 229.023335,18.617 228.752,18.617 C228.381998,18.617 228.079835,18.4813347 227.8455,18.21 C227.611165,17.9386653 227.494,17.5933354 227.494,17.174 C227.494,16.8039981 227.598832,16.4771681 227.8085,16.1935 C228.018168,15.9098319 228.357331,15.6323347 228.826,15.361 C229.689338,14.892331 230.700661,14.5161681 231.86,14.2325 C233.019339,13.9488319 234.141661,13.807 235.227,13.807 Z M234.08,29.791 C235.436673,29.791 236.546662,29.3285046 237.41,28.4035 C238.273338,27.4784954 238.705,26.2883406 238.705,24.833 L238.705,23.871 L238.039,23.871 C236.11499,23.871 234.635005,23.9573325 233.599,24.13 C232.562995,24.3026675 231.823002,24.592498 231.379,24.9995 C230.934998,25.406502 230.713,25.9923295 230.713,26.757 C230.713,27.6450044 231.033663,28.3726638 231.675,28.94 C232.316337,29.5073362 233.117995,29.791 234.08,29.791 Z M256.909,13.881 C258.093006,13.8069996 258.685,14.3126612 258.685,15.398 C258.685,15.9406694 258.549335,16.3476653 258.278,16.619 C258.006665,16.8903347 257.538003,17.0506664 256.872,17.1 L255.762,17.211 C254.207992,17.3590007 253.054837,17.901662 252.3025,18.839 C251.550163,19.776338 251.174,20.9109933 251.174,22.243 L251.174,30.716 C251.174,31.308003 251.001335,31.7519985 250.656,32.048 C250.310665,32.3440015 249.866669,32.492 249.324,32.492 C248.781331,32.492 248.331168,32.3440015 247.9735,32.048 C247.615832,31.7519985 247.437,31.308003 247.437,30.716 L247.437,15.657 C247.437,15.0896638 247.615832,14.6518349 247.9735,14.3435 C248.331168,14.0351651 248.781331,13.881 249.324,13.881 C249.817336,13.881 250.230498,14.0351651 250.5635,14.3435 C250.896502,14.6518349 251.063,15.0773306 251.063,15.62 L251.063,17.396 C251.556336,16.3106612 252.271662,15.4843362 253.209,14.917 C254.146338,14.3496638 255.206994,14.0166672 256.391,13.918 L256.909,13.881 Z M275.742,6.037 C276.309336,6.037 276.765665,6.19733173 277.111,6.518 C277.456335,6.83866827 277.629,7.27033062 277.629,7.813 L277.629,30.679 C277.629,31.2463362 277.462502,31.6903317 277.1295,32.011 C276.796498,32.3316683 276.346336,32.492 275.779,32.492 C275.211664,32.492 274.761502,32.3316683 274.4285,32.011 C274.095498,31.6903317 273.929,31.2463362 273.929,30.679 L273.929,29.199 C273.386331,30.2843388 272.597005,31.1168304 271.561,31.6965 C270.524995,32.2761696 269.328673,32.566 267.972,32.566 C266.417992,32.566 265.030506,32.1713373 263.8095,31.382 C262.588494,30.5926627 261.638837,29.4826738 260.9605,28.052 C260.282163,26.6213262 259.943,24.9810092 259.943,23.131 C259.943,21.256324 260.282163,19.616007 260.9605,18.21 C261.638837,16.803993 262.582327,15.7186705 263.791,14.954 C264.999673,14.1893295 266.393325,13.807 267.972,13.807 C269.328673,13.807 270.518828,14.0968304 271.5425,14.6765 C272.566172,15.2561696 273.349331,16.076328 273.892,17.137 L273.892,7.739 C273.892,7.22099741 274.058498,6.80783487 274.3915,6.4995 C274.724502,6.19116512 275.174664,6.037 275.742,6.037 Z M268.86,29.606 C270.463341,29.606 271.708996,29.0510055 272.597,27.941 C273.485004,26.8309944 273.929,25.2523436 273.929,23.205 C273.929,21.1576564 273.491171,19.5790055 272.6155,18.469 C271.739829,17.3589944 270.488008,16.804 268.86,16.804 C267.231992,16.804 265.967838,17.3528278 265.0675,18.4505 C264.167162,19.5481722 263.717,21.1083232 263.717,23.131 C263.717,25.1536768 264.173329,26.7384943 265.086,27.8855 C265.998671,29.0325057 267.256659,29.606 268.86,29.606 Z M289.136,32.566 C286.619987,32.566 284.560341,32.0480052 282.957,31.012 C282.512998,30.7406653 282.198501,30.4570015 282.0135,30.161 C281.828499,29.8649985 281.736,29.5320018 281.736,29.162 C281.736,28.7673314 281.846999,28.4343347 282.069,28.163 C282.291001,27.8916653 282.574665,27.756 282.92,27.756 C283.240668,27.756 283.74633,27.9533314 284.437,28.348 C285.177004,28.7426686 285.898496,29.0633321 286.6015,29.31 C287.304504,29.5566679 288.186328,29.68 289.247,29.68 C290.431006,29.68 291.355997,29.4703354 292.022,29.051 C292.688003,28.6316646 293.021,28.0396705 293.021,27.275 C293.021,26.7816642 292.891501,26.3870015 292.6325,26.091 C292.373499,25.7949985 291.923337,25.5298345 291.282,25.2955 C290.640663,25.0611655 289.691006,24.8083347 288.433,24.537 C286.262322,24.068331 284.702171,23.4331707 283.7525,22.6315 C282.802829,21.8298293 282.328,20.7383402 282.328,19.357 C282.328,18.296328 282.63633,17.3405043 283.253,16.4895 C283.86967,15.6384957 284.720661,14.978669 285.806,14.51 C286.891339,14.041331 288.12466,13.807 289.506,13.807 C290.492672,13.807 291.454662,13.9364987 292.392,14.1955 C293.329338,14.4545013 294.155663,14.8306642 294.871,15.324 C295.685004,15.8666694 296.092,16.4956631 296.092,17.211 C296.092,17.6056686 295.974835,17.9386653 295.7405,18.21 C295.506165,18.4813347 295.228668,18.617 294.908,18.617 C294.685999,18.617 294.464001,18.5676672 294.242,18.469 C294.019999,18.3703328 293.724002,18.2100011 293.354,17.988 C292.687997,17.5933314 292.06517,17.2850011 291.4855,17.063 C290.90583,16.8409989 290.184338,16.73 289.321,16.73 C288.284995,16.73 287.452503,16.9519978 286.8235,17.396 C286.194497,17.8400022 285.88,18.4443295 285.88,19.209 C285.88,19.8996701 286.16983,20.4361648 286.7495,20.8185 C287.32917,21.2008352 288.420659,21.5646649 290.024,21.91 C291.676675,22.2553351 292.971662,22.6499978 293.909,23.094 C294.846338,23.5380022 295.518498,24.0868301 295.9255,24.7405 C296.332502,25.3941699 296.536,26.2266616 296.536,27.238 C296.536,28.8413413 295.86384,30.1301618 294.5195,31.1045 C293.17516,32.0788382 291.380678,32.566 289.136,32.566 Z" id="thrive-rewards"></path>
                    <path d="M38.9992678,19.5633117 C38.9992678,7.6976461 29.8198698,0 19.3810711,0 C9.1003561,0 0,7.6976461 0,19.5633117 C0.000220746267,20.4842429 0.0600667652,21.4041913 0.179161614,22.3173701 L0.147544859,22.3173701 C0.264625477,23.2074172 0.440662112,24.0886886 0.674490782,24.9553571 C2.86658583,33.3125 10.1595174,38.6201299 18.3640654,39 L18.6222689,39 L18.9384365,39 L20.1135259,39 C28.5288523,38.8839286 36.1168736,33.5288149 38.3511243,24.976461 C38.5874468,24.1103806 38.7635175,23.2289385 38.8780703,22.338474 L38.841184,22.338474 C38.9541451,21.4178505 39.006952,20.4908247 38.9992678,19.5633117 Z M2.00054395,19.3093765 C2.00054395,9.44375687 9.66789079,2.00072933 19.8605726,2.00072933 C24.5703229,1.95962338 29.1162047,3.65748989 32.5570972,6.74282444 C36.1086853,9.93342973 38,14.288941 38,19.3093765 C37.999673,20.2096165 37.9332409,21.1087163 37.801197,22 L29.204312,22 C29.4707373,21.1259488 29.6064183,20.2200295 29.607291,19.3093765 C29.607291,15.9780884 27.7546975,12.8998512 24.7473645,11.2342072 C21.7400314,9.56856309 18.0348443,9.56856309 15.0275113,11.2342072 C12.0201782,12.8998512 10.1675847,15.9780884 10.1675847,19.3093765 C10.167535,20.2204631 10.305081,21.1267508 10.5759368,22 L2.17248165,22 C2.05116388,21.1079466 1.99371672,20.2089659 2.00054395,19.3093765 Z M12.0207505,20.107 C12.0114003,15.6959766 15.336475,12.0899488 19.4961171,12 C21.9885681,12.0440365 24.3036095,13.37599 25.6968413,15.5675717 C27.0900732,17.7591534 27.3858387,20.5340518 26.4890347,23 L12.5083872,23 C12.1726278,22.0769991 12.0002837,21.0962677 12,20.107 L12.0207505,20.107 Z" id="Pockit-Icon"></path>
                </g>
            </g>
        </g>
    </g>
</svg>