<?xml version="1.0" encoding="UTF-8"?>
<svg width="86px" height="86px" viewBox="0 0 86 86" version="1.1" xmlns="http://www.w3.org/2000/svg" xmlns:xlink="http://www.w3.org/1999/xlink">
    <!-- Generator: Sketch 52.2 (67145) - http://www.bohemiancoding.com/sketch -->
    <title>thrive-rewards-red</title>
    <desc>Created with Sketch.</desc>
    <g id="Microsite-Desktop" stroke="none" stroke-width="1" fill="none" fill-rule="evenodd">
        <g id="Loyalty-Microsite" transform="translate(-297.000000, -1580.000000)" fill="#E53248">
            <g id="What-you'll-get" transform="translate(0.000000, 1371.000000)">
                <g id="Activate" transform="translate(297.000000, 209.000000)">
                    <path d="M85.9983855,42.637987 C85.9983855,16.776921 65.756636,0 42.7377465,0 C20.0674519,0 0,16.776921 0,42.637987 C0.000486773819,44.6451448 0.132454918,46.6501604 0.395074329,48.6404221 L0.325355329,48.6404221 C0.583533103,50.5802682 0.971716452,52.5009879 1.48733865,54.389881 C6.32118926,72.6041667 22.4030384,84.1720779 40.4951187,85 L41.0644905,85 L41.7616805,85 L44.3529033,85 C62.9097769,84.7470238 79.6423367,73.0756223 84.569146,54.4358766 C85.0902672,52.5482654 85.4785258,50.6271737 85.7311293,48.6864177 L85.6497905,48.6864177 C85.8988841,46.6799305 86.0153301,44.6594897 85.9983855,42.637987 Z M4.00119367,41.0806282 C4.00119367,19.3762651 20.8267603,3.00160453 43.1940343,3.00160453 C53.5293197,2.91117144 63.5050048,6.64647777 71.0558521,13.4342138 C78.849615,20.4535454 83,30.0356702 83,41.0806282 C82.9992824,43.0611564 82.8535009,45.0391759 82.5637379,47 L63.6983513,47 C64.2830069,45.0770874 64.5807513,43.0840648 64.5826663,41.0806282 C64.5826665,33.7517944 60.5172529,26.9796727 53.9178276,23.3152557 C47.3184023,19.6508388 39.187575,19.6508388 32.5881497,23.3152557 C25.9887244,26.9796727 21.9233108,33.7517944 21.9233109,41.0806282 C21.9232018,43.0850189 22.2250388,45.0788518 22.8194168,47 L4.37850141,47 C4.11227629,45.0374826 3.98621169,43.0597249 4.00119367,41.0806282 Z M27.0456511,40.951 C27.0250807,31.7279511 34.3402449,24.1880747 43.4914577,24 C48.9748498,24.0920764 54.0679409,26.8770701 57.1330509,31.4594682 C60.198161,36.0418663 60.8488451,41.8439264 58.8758764,47 L28.1184518,47 C27.3797811,45.070089 27.0006242,43.0194687 27,40.951 L27.0456511,40.951 Z" id="Pockit-Icon"></path>
                </g>
            </g>
        </g>
    </g>
</svg>