<?xml version="1.0" encoding="UTF-8"?>
<svg width="23px" height="23px" viewBox="0 0 23 23" version="1.1" xmlns="http://www.w3.org/2000/svg" xmlns:xlink="http://www.w3.org/1999/xlink">
    <!-- Generator: Sketch 52.2 (67145) - http://www.bohemiancoding.com/sketch -->
    <title>Thrive icon</title>
    <desc>Created with Sketch.</desc>
    <defs>
        <polygon id="path-1" points="9.8 0 14 0 14 1.4 9.8 1.4"></polygon>
    </defs>
    <g id="Microsite-Mobile" stroke="none" stroke-width="1" fill="none" fill-rule="evenodd">
        <g id="Navigation-Menu" transform="translate(-220.000000, -398.000000)">
            <g id="Partnership-with-Thrive" transform="translate(82.000000, 398.000000)">
                <g id="Thrive-icon" transform="translate(138.300000, 0.000000)">
                    <circle id="Oval" fill="#000000" fill-rule="nonzero" cx="11.2" cy="11.2" r="11.2"></circle>
                    <g id="smile" transform="translate(4.900000, 9.800000)">
                        <path d="M11.9,1.64839938 C11.9,1.51120205 11.7269997,1.4 11.5135488,1.4 C11.3001551,1.4 11.1271548,1.49309422 11.1271548,1.63023601 C11.1271548,1.63851229 11.1297258,1.64667747 11.1309256,1.65484266 C10.5434215,3.9041013 8.44370715,5.57324295 5.95,5.57324295 C3.46103493,5.57324295 1.36480575,3.91043348 0.772673849,1.66772921 C0.772673849,1.66734039 0.772902383,1.66695157 0.772902383,1.66650721 C0.772902383,1.52936542 0.599844923,1.41816337 0.386394058,1.41816337 C0.17305746,1.41816337 0,1.51120205 0,1.64839938 C0,1.67345039 0.00754162586,1.69805704 0.0183398629,1.72183051 C0.647037218,4.34168858 3.06658505,6.3 5.95,6.3 C8.83478616,6.3 11.2552481,4.33996667 11.8825743,1.7182756 C11.8928012,1.69589077 11.9,1.67278385 11.9,1.64839938" id="Fill-4" fill="#FFFFFF"></path>
                        <mask id="mask-2" fill="white">
                            <use xlink:href="#path-1"></use>
                        </mask>
                        <g id="Clip-2"></g>
                        <path d="M9.8,1.4 C9.8,1.4 10.9854736,-0.241567358 13.5315001,0.0304160831 C13.5315001,0.0304160831 14.1323694,0.172327948 13.9731483,0.737916228 C13.9731483,0.737916228 13.8725387,1.30350451 13.0197389,1.08202819 C13.0197389,1.08202819 11.6651111,0.415654459 9.8,1.4" id="Fill-1" fill="#FFFFFF" mask="url(#mask-2)"></path>
                    </g>
                </g>
            </g>
        </g>
    </g>
</svg>