<?xml version="1.0" encoding="UTF-8"?>
<svg width="30px" height="29px" viewBox="0 0 30 29" version="1.1" xmlns="http://www.w3.org/2000/svg" xmlns:xlink="http://www.w3.org/1999/xlink">
    <!-- Generator: Sketch 52.2 (67145) - http://www.bohemiancoding.com/sketch -->
    <title>Group 29</title>
    <desc>Created with Sketch.</desc>
    <defs>
        <polygon id="path-1" points="0.000243243243 0.05655 29.8794324 0.05655 29.8794324 29 0.000243243243 29"></polygon>
    </defs>
    <g id="Microsite-Mobile" stroke="none" stroke-width="1" fill="none" fill-rule="evenodd">
        <g id="Thrive-Rewards-microsite" transform="translate(-76.000000, -247.000000)">
            <g id="Call-out-JOIN-Copy" transform="translate(0.000000, 228.000000)">
                <g id="Group-29" transform="translate(76.000000, 19.000000)">
                    <mask id="mask-2" fill="white">
                        <use xlink:href="#path-1"></use>
                    </mask>
                    <g id="Clip-28"></g>
                    <path d="M9.56132432,14.5283556 C9.56132432,11.6557444 11.9742973,9.31802222 14.9394324,9.31802222 C17.9053784,9.31802222 20.3183514,11.6557444 20.3183514,14.5283556 C20.3183514,15.1381611 20.2032162,15.7205778 20.0037568,16.2643278 L9.87510811,16.2643278 C9.67564865,15.7205778 9.56132432,15.1381611 9.56132432,14.5283556 M1.79294595,14.5283556 C1.79294595,7.50552222 7.68997297,1.79252222 14.9394324,1.79252222 C22.1888919,1.79252222 28.0867297,7.50552222 28.0867297,14.5283556 C28.0867297,15.1172167 28.0413243,15.6964111 27.9610541,16.2643278 L21.8751081,16.2643278 C22.0234865,15.7084944 22.1110541,15.1284944 22.1110541,14.5283556 C22.1110541,10.6979389 18.8937568,7.58205 14.9394324,7.58205 C10.9851081,7.58205 7.76862162,10.6979389 7.76862162,14.5283556 C7.76862162,15.1284944 7.85537838,15.7084944 8.00456757,16.2643278 L1.91781081,16.2643278 C1.83754054,15.6964111 1.79294595,15.1172167 1.79294595,14.5283556 M26.7213243,23.4216889 C26.984027,23.0954389 27.2329459,22.7579111 27.4664595,22.4091056 C27.4729459,22.3994389 27.4794324,22.3905778 27.4859189,22.3801056 C28.6907838,20.5780778 29.4926757,18.50055 29.7683514,16.2651333 L29.7683514,16.2643278 C29.8388919,15.6948 29.8794324,15.1164111 29.8794324,14.5283556 C29.8794324,6.53563333 23.1910541,0.05655 14.9394324,0.05655 C6.68862162,0.05655 0.000243243243,6.53563333 0.000243243243,14.5283556 C0.000243243243,15.1164111 0.0407837838,15.6948 0.110513514,16.2643278 L0.110513514,16.2651333 C0.387,18.50055 1.18808108,20.5780778 2.39294595,22.3801056 C2.39943243,22.3905778 2.40591892,22.3994389 2.41240541,22.4091056 C2.64672973,22.7579111 2.89483784,23.0954389 3.15835135,23.4216889 C3.17213514,23.4386056 3.18510811,23.4547167 3.19889189,23.4724389 C3.46078378,23.7938556 3.73564865,24.1056056 4.0242973,24.4044667 C4.03889189,24.4197722 4.0542973,24.4342722 4.06889189,24.4487722 C4.36159459,24.75005 4.66564865,25.04005 4.98348649,25.31555 C4.99159459,25.3219944 5.00051351,25.3284389 5.00781081,25.3356889 C5.65727027,25.89555 6.357,26.4022444 7.10051351,26.8469111 C7.11105405,26.8541611 7.12159459,26.8606056 7.13213514,26.86705 C7.48564865,27.0773 7.85051351,27.2714389 8.22267568,27.4534944 C8.25997297,27.4720222 8.29727027,27.4913556 8.33537838,27.5090778 C8.69375676,27.6814667 9.06186486,27.8377444 9.43645946,27.9819389 C9.48997297,28.0028833 9.54267568,28.0230222 9.59618919,28.0423556 C9.96591892,28.1801056 10.3421351,28.3033556 10.7256486,28.4121056 C10.7848378,28.4290222 10.8448378,28.4451333 10.9056486,28.46205 C11.2907838,28.5659667 11.6815946,28.6569944 12.0788919,28.7319111 C12.1348378,28.7431889 12.1915946,28.7512444 12.2483514,28.7609111 C12.6553784,28.8334111 13.0680811,28.8914111 13.4864595,28.9308833 C13.5261892,28.9349111 13.5651081,28.9365222 13.6048378,28.9397444 C14.0451081,28.9776056 14.4894324,29.0001611 14.9394324,29.0001611 C15.3894324,29.0001611 15.8345676,28.9776056 16.274027,28.9397444 C16.3137568,28.9365222 16.3534865,28.9349111 16.3924054,28.9308833 C16.8107838,28.8914111 17.2234865,28.8334111 17.6313243,28.7609111 C17.6872703,28.7512444 17.744027,28.7431889 17.8007838,28.7319111 C18.1972703,28.6569944 18.5888919,28.5659667 18.974027,28.46205 C19.034027,28.4451333 19.094027,28.4290222 19.154027,28.4121056 C19.5367297,28.3033556 19.9137568,28.1801056 20.2834865,28.0423556 C20.337,28.0230222 20.3897027,28.0028833 20.4424054,27.9819389 C20.8178108,27.8377444 21.1851081,27.6814667 21.5442973,27.5090778 C21.5824054,27.4913556 21.6197027,27.4720222 21.657,27.4534944 C22.0291622,27.2714389 22.394027,27.0773 22.7475405,26.86705 C22.7580811,26.8606056 22.7686216,26.8541611 22.7791622,26.8469111 C23.5226757,26.4022444 24.2224054,25.89555 24.8710541,25.3356889 C24.8791622,25.3284389 24.8872703,25.3219944 24.8953784,25.31555 C25.2132162,25.04005 25.5180811,24.75005 25.8107838,24.4487722 C25.8253784,24.4342722 25.839973,24.4197722 25.8545676,24.4044667 C26.1432162,24.1056056 26.4180811,23.7938556 26.679973,23.4724389 C26.6937568,23.4547167 26.7075405,23.4386056 26.7213243,23.4216889" id="Fill-27" fill="#FFFFFF" mask="url(#mask-2)"></path>
                </g>
            </g>
        </g>
    </g>
</svg>