<?xml version="1.0" encoding="UTF-8"?>
<svg width="32px" height="32px" viewBox="0 0 32 32" version="1.1" xmlns="http://www.w3.org/2000/svg" xmlns:xlink="http://www.w3.org/1999/xlink">
    <!-- Generator: Sketch 53.2 (72643) - https://sketchapp.com -->
    <title>Thrive icon 1</title>
    <desc>Created with Sketch.</desc>
    <defs>
        <polygon id="path-1" points="13.6347826 0 19.4782609 0 19.4782609 1.94782609 13.6347826 1.94782609"></polygon>
    </defs>
    <g id="Microsite-Mobile" stroke="none" stroke-width="1" fill="none" fill-rule="evenodd">
        <g id="Thrive-icon">
            <g transform="translate(-0.000000, 0.000000)">
                <circle id="Oval" fill="#E63248" fill-rule="nonzero" cx="15.5826087" cy="15.5826087" r="15.5826087"></circle>
                <g id="smile" transform="translate(6.817391, 13.634783)">
                    <path d="M16.5565217,2.29342523 C16.5565217,2.10254198 16.3158256,1.94782609 16.0188505,1.94782609 C15.7219549,1.94782609 15.4812588,2.07734848 15.4812588,2.26815445 C15.4812588,2.27966927 15.4848358,2.29102953 15.4865051,2.30238979 C14.6691081,5.43179311 11.7477665,7.75407715 8.27826087,7.75407715 C4.81535295,7.75407715 1.89886017,5.4406031 1.07502449,2.3203189 C1.07502449,2.31977794 1.07534245,2.31923697 1.07534245,2.31861873 C1.07534245,2.12781276 0.83456685,1.97309687 0.537591733,1.97309687 C0.240775597,1.97309687 0,2.10254198 0,2.29342523 C0,2.32827881 0.0104926968,2.36251415 0.025516331,2.39559027 C0.900225695,6.0406102 4.26655311,8.76521739 8.27826087,8.76521739 C12.2918764,8.76521739 15.6594756,6.0382145 16.5322773,2.39064431 C16.546506,2.3595002 16.5565217,2.32735144 16.5565217,2.29342523" id="Fill-4" fill="#FFFFFF"></path>
                    <mask id="mask-2" fill="white">
                        <use xlink:href="#path-1"></use>
                    </mask>
                    <g id="Clip-2"></g>
                    <path d="M13.6347826,1.94782609 C13.6347826,1.94782609 15.2841372,-0.336093716 18.826435,0.0423180287 C18.826435,0.0423180287 19.6624269,0.239760624 19.440902,1.02666606 C19.440902,1.02666606 19.3009234,1.81357149 18.1144194,1.50543053 C18.1144194,1.50543053 16.2297198,0.578301856 13.6347826,1.94782609" id="Fill-1" fill="#FFFFFF" mask="url(#mask-2)"></path>
                </g>
            </g>
        </g>
    </g>
</svg>